<?xml version="1.0" standalone="no"?>
<!DOCTYPE svg PUBLIC "-//W3C//DTD SVG 20010904//EN"
 "http://www.w3.org/TR/2001/REC-SVG-20010904/DTD/svg10.dtd">
<svg version="1.0" xmlns="http://www.w3.org/2000/svg"
 width="260.000000pt" height="260.000000pt" viewBox="0 0 260.000000 260.000000"
 preserveAspectRatio="xMidYMid meet">
<metadata>
Created by potrace 1.11, written by Peter Selinger 2001-2013
</metadata>
<g transform="translate(0.000000,260.000000) scale(0.100000,-0.100000)"
fill="#000000" stroke="none">
<path d="M449 2468 c-88 -85 -84 -71 -84 -286 l0 -192 59 -65 60 -65 117 0
c113 0 119 1 143 25 14 14 29 25 34 25 5 0 18 -11 30 -25 21 -24 27 -25 132
-25 l110 0 0 -180 0 -180 -108 0 c-103 0 -110 -1 -132 -25 -13 -14 -27 -25
-30 -25 -4 0 -19 11 -34 25 -26 24 -33 25 -140 25 l-114 0 -38 -34 -39 -35 34
-35 35 -36 117 0 c109 0 119 2 146 24 l28 24 28 -24 c26 -22 36 -24 145 -24
l118 0 62 62 62 62 0 193 -1 193 -61 65 -60 65 -117 0 c-110 0 -118 -1 -145
-25 l-30 -25 -26 25 c-25 24 -32 25 -136 25 l-109 0 -1 185 0 185 107 0 c99 0
110 2 136 24 l28 24 30 -24 c28 -22 39 -24 146 -24 l115 0 34 35 34 35 -34 35
-34 35 -116 0 c-111 0 -118 -1 -140 -25 -13 -14 -26 -25 -29 -25 -4 0 -18 11
-33 25 -26 24 -33 25 -141 25 l-114 0 -44 -42z"/>
<path d="M1402 2461 c-81 -79 -79 -73 -77 -276 2 -99 3 -185 4 -192 0 -6 27
-39 59 -72 l58 -61 119 0 c119 1 120 1 145 29 l24 28 29 -28 c28 -28 31 -29
138 -29 l109 0 0 -180 0 -180 -107 0 c-102 0 -108 -1 -134 -26 l-28 -27 -31
27 c-30 25 -37 26 -145 26 l-114 0 -38 -35 -38 -34 35 -35 35 -35 118 -1 c111
0 119 1 144 24 l26 25 32 -25 c30 -22 40 -24 146 -24 126 1 126 0 206 92 l32
37 0 190 1 189 -61 66 -61 66 -118 0 c-111 0 -118 -1 -144 -25 -28 -26 -41
-25 -64 7 -11 16 -29 18 -125 18 l-112 0 0 185 -1 185 107 0 c99 0 110 2 136
24 l28 24 30 -24 c28 -22 39 -24 146 -24 l115 0 34 35 34 35 -34 35 -34 35
-116 0 c-111 0 -118 -1 -140 -25 -13 -14 -26 -25 -29 -25 -4 0 -18 11 -33 25
-26 24 -33 25 -142 25 l-114 0 -50 -49z"/>
<path d="M940 1127 c-19 -18 -48 -47 -65 -65 l-29 -33 -1 -191 c-1 -185 0
-193 22 -219 28 -33 28 -37 1 -66 -22 -23 -23 -31 -23 -221 l0 -196 35 -39 35
-38 35 40 35 40 0 186 -1 185 108 0 c103 0 108 1 132 27 24 25 25 26 50 9 14
-9 26 -21 26 -26 0 -6 50 -10 123 -10 l123 0 61 65 62 64 0 198 0 198 -62 63
-61 62 -116 0 c-111 0 -118 -1 -140 -25 -13 -14 -26 -25 -29 -25 -4 0 -18 11
-33 25 -26 24 -33 25 -140 25 l-113 0 -35 -33z m481 -107 l109 0 0 -185 0
-185 -107 0 c-97 0 -109 -2 -138 -24 l-32 -25 -26 25 c-24 22 -34 24 -134 24
l-108 0 0 185 0 185 107 0 c98 0 109 2 135 24 l28 24 28 -24 c26 -22 37 -24
138 -24z"/>
</g>
</svg>
